<?xml version="1.0" standalone="no"?>
<!DOCTYPE svg PUBLIC "-//W3C//DTD SVG 20010904//EN"
 "http://www.w3.org/TR/2001/REC-SVG-20010904/DTD/svg10.dtd">
<svg version="1.0" xmlns="http://www.w3.org/2000/svg"
 width="72.000000pt" height="72.000000pt" viewBox="0 0 72.000000 72.000000"
 preserveAspectRatio="xMidYMid meet">
<metadata>
Created by potrace 1.14, written by Peter Selinger 2001-2017
</metadata>
<g transform="translate(0.000000,72.000000) scale(0.100000,-0.100000)"
fill="#000000" stroke="none">
<path d="M440 691 c-38 -20 -80 -82 -80 -118 0 -32 40 -30 79 3 36 30 51 55
62 101 8 40 -7 43 -61 14z"/>
<path d="M175 520 c-92 -46 -125 -171 -81 -313 28 -93 106 -194 154 -201 9 -2
34 3 56 10 48 17 93 18 142 1 22 -7 49 -11 61 -9 27 4 77 54 108 107 38 66 38
78 6 97 -77 44 -85 166 -16 238 28 29 24 39 -25 69 -42 25 -102 27 -171 5 -46
-15 -53 -15 -92 0 -56 21 -93 20 -142 -4z"/>
</g>
</svg>
